<?xml version="1.0" encoding="UTF-8" standalone="no"?>
<!-- Created with Inkscape (http://www.inkscape.org/) -->

<svg
   width="120.72809mm"
   height="23.081182mm"
   viewBox="0 0 120.72809 23.081182"
   version="1.1"
   id="svg1"
   xmlns="http://www.w3.org/2000/svg"
   xmlns:svg="http://www.w3.org/2000/svg">
  <defs
     id="defs1" />
  <g
     id="layer1"
     transform="translate(-79.744483,-175.53907)">
    <g
       id="g151">
      <path
         style="font-size:29.0609px;font-family:'Arial Rounded MT Bold';-inkscape-font-specification:'Arial Rounded MT Bold, ';fill:#ff6600;stroke-width:1.83326"
         d="m 197.94138,122.2776 c -1.27709,0 -2.36969,0.20802 -3.27784,0.62426 -0.89869,0.40677 -1.57976,0.95531 -2.04329,1.64589 -0.46353,0.69057 -0.69556,1.42364 -0.69556,2.19935 0,0.87031 0.25104,1.60338 0.75241,2.19935 0.50137,0.59598 1.16792,1.07853 2.00039,1.44746 0.84193,0.35948 1.93004,0.70502 3.26389,1.03611 1.18249,0.2838 2.02906,0.58182 2.53989,0.894 0.52029,0.31217 0.78032,0.80871 0.78032,1.48983 0,0.44461 -0.25053,0.84164 -0.7519,1.19166 -0.49191,0.34055 -1.12545,0.51108 -1.90117,0.51108 -0.95545,0 -1.71252,-0.17053 -2.27066,-0.51108 -0.54867,-0.34056 -1.02172,-0.85611 -1.41904,-1.54668 -0.19866,-0.35948 -0.40668,-0.6385 -0.62425,-0.83715 -0.21758,-0.19869 -0.5296,-0.29766 -0.93638,-0.29766 -0.46353,0 -0.84656,0.15101 -1.14928,0.45372 -0.30271,0.30272 -0.45424,0.66726 -0.45424,1.09296 0,0.64327 0.23653,1.28632 0.70952,1.92959 0.473,0.63381 1.20606,1.16335 2.19935,1.58905 0.99329,0.42569 2.1854,0.63872 3.57601,0.63872 1.45683,0 2.69092,-0.19402 3.70313,-0.58187 1.02167,-0.39732 1.79275,-0.97437 2.31304,-1.73116 0.5203,-0.76625 0.78083,-1.68384 0.78083,-2.75281 0,-0.70949 -0.19903,-1.33855 -0.59635,-1.88722 -0.38786,-0.55814 -0.96491,-1.04069 -1.73116,-1.44746 -0.75679,-0.40678 -1.73587,-0.75681 -2.93728,-1.05006 -1.01221,-0.24596 -1.80678,-0.45397 -2.38384,-0.62425 -0.57705,-0.17028 -1.03558,-0.3828 -1.37614,-0.63821 -0.34055,-0.26488 -0.51108,-0.60091 -0.51108,-1.00769 0,-0.44461 0.23203,-0.81365 0.69556,-1.10691 0.46354,-0.30271 1.04509,-0.45423 1.74512,-0.45423 0.68111,0 1.22015,0.11352 1.61747,0.34055 0.39731,0.22704 0.74285,0.53007 1.03611,0.90847 0.35948,0.45407 0.67652,0.7946 0.95085,1.02164 0.2838,0.22704 0.62433,0.34055 1.02164,0.34055 0.54868,0 0.96972,-0.14202 1.26297,-0.42582 0.30272,-0.2838 0.45372,-0.64783 0.45372,-1.09244 0,-0.40678 -0.14201,-0.82332 -0.42581,-1.24901 -0.27433,-0.4257 -0.68086,-0.81323 -1.22008,-1.16324 -0.52975,-0.35002 -1.19682,-0.62904 -2.00091,-0.83716 -0.79463,-0.20812 -1.69321,-0.31213 -2.69596,-0.31213 z"
         id="path112-2" />
      <path
         d="m 156.46432,134.49598 v -2.15801 c -0.83409,0.23704 -1.63291,0.60885 -2.35644,1.16169 0.7972,-0.78008 1.58433,-1.44246 2.35644,-2.0097 v -7.01301 c 0,-0.69057 -0.18451,-1.23013 -0.55345,-1.61799 -0.36893,-0.38786 -0.83697,-0.58136 -1.40457,-0.58136 -0.56759,0 -1.03114,0.1935 -1.39061,0.58136 -0.35002,0.38786 -0.52503,0.96492 -0.52503,1.73117 v 11.08252 c 0,0.75679 0.17501,1.33834 0.52503,1.74512 0.35947,0.40677 0.82302,0.61029 1.39061,0.61029 0.43442,0 0.81012,-0.11715 1.1281,-0.34984 -0.62306,-0.60521 -1.34601,-1.11218 -2.18798,-1.46296 0.97619,0.27295 1.86347,0.58737 2.67632,0.9312 0.22668,-0.37555 0.34158,-0.86579 0.34158,-1.47381 v -0.41961 c -0.89721,-0.24893 -1.83807,-0.34789 -2.8081,-0.22221 0.99103,-0.25404 1.92506,-0.42642 2.8081,-0.53485 z"
         style="font-size:29.0609px;font-family:'Arial Rounded MT Bold';-inkscape-font-specification:'Arial Rounded MT Bold, ';fill:#ff6600;stroke-width:1.83326"
         id="path123-0" />
      <path
         d="m 167.47563,122.24908 c -1.61765,0 -3.00827,0.33551 -4.17184,1.00717 -1.16357,0.66219 -2.05265,1.60379 -2.66754,2.82412 -0.39606,0.78603 -0.66271,1.64963 -0.80305,2.58899 -0.0447,0.29905 -0.0771,0.60538 -0.0961,0.91984 -0.014,0.23132 -0.0233,0.46566 -0.0233,0.70538 0,0.16863 0.004,0.33399 0.0114,0.49765 0.0153,0.35551 0.0504,0.6972 0.0982,1.02991 0.009,0.0655 0.0158,0.13331 0.0264,0.19792 0.0444,0.26814 0.10075,0.5275 0.16691,0.78031 0.15779,0.60294 0.37653,1.1633 0.65888,1.67845 0.28696,0.52353 0.63769,1.00203 1.05316,1.43506 1.34331,1.39061 3.21197,2.08566 5.60534,2.08566 0.20971,0 0.41158,-0.0107 0.6134,-0.0212 0.88158,-0.0458 1.69183,-0.18621 2.42311,-0.43253 0.89869,-0.30272 1.64125,-0.70027 2.22777,-1.19218 0.59597,-0.50138 1.03602,-1.02642 1.31982,-1.57509 0.29325,-0.54867 0.43976,-1.06422 0.43976,-1.54668 0,-0.40677 -0.15601,-0.7898 -0.46818,-1.14928 -0.31218,-0.35948 -0.70472,-0.53951 -1.17771,-0.53951 -0.39732,0 -0.73335,0.12301 -1.00769,0.36897 -0.27433,0.24596 -0.52986,0.5865 -0.76636,1.02165 -0.4257,0.73787 -0.91723,1.28693 -1.47536,1.64641 -0.54867,0.35948 -1.21125,0.53898 -1.98696,0.53898 -0.57706,0 -1.1066,-0.10901 -1.58905,-0.32659 -0.48246,-0.22704 -0.894,-0.55306 -1.23455,-0.97875 -0.21924,-0.28013 -0.40141,-0.59956 -0.55397,-0.95033 -0.0844,-0.19411 -0.16232,-0.39514 -0.22635,-0.61082 -0.17971,-0.61489 -0.26975,-1.28644 -0.26975,-2.01486 0,-0.62201 0.059,-1.18825 0.17157,-1.70377 0.16814,-0.7703 0.45912,-1.42427 0.8785,-1.95699 0.70003,-0.89869 1.6221,-1.34824 2.76675,-1.34824 0.79463,0 1.44771,0.17951 1.95854,0.53899 0.52029,0.35947 1.01683,0.89903 1.48983,1.61799 0.26488,0.36893 0.50141,0.63845 0.70952,0.80873 0.21758,0.16083 0.48709,0.24133 0.80873,0.24133 0.49191,0 0.90846,-0.16102 1.24902,-0.48266 0.35001,-0.32164 0.52504,-0.71417 0.52504,-1.1777 0,-0.45408 -0.15654,-0.94112 -0.46871,-1.46141 -0.30272,-0.52975 -0.74726,-1.02629 -1.33377,-1.48983 -0.57706,-0.46353 -1.28662,-0.84208 -2.12855,-1.13534 -0.83247,-0.29326 -1.75005,-0.43976 -2.7528,-0.43976 z"
         style="font-size:29.0609px;font-family:'Arial Rounded MT Bold';-inkscape-font-specification:'Arial Rounded MT Bold, ';fill:#ff6600;stroke-width:1.83326"
         id="path151" />
      <path
         d="m 113.02882,122.24908 c -1.52282,5e-5 -2.79527,0.20806 -3.81682,0.62425 -1.02167,0.41623 -1.77374,0.94577 -2.25619,1.58905 -0.48246,0.64327 -0.72347,1.30533 -0.72347,1.98644 0,0.43516 0.15601,0.7947 0.46818,1.07849 0.32164,0.27434 0.70018,0.41186 1.13533,0.41186 0.48246,0 0.79448,-0.0855 0.93638,-0.2558 0.15136,-0.17974 0.40188,-0.54377 0.75189,-1.09244 0.35948,-0.54867 0.78553,-0.96021 1.27745,-1.23455 0.50137,-0.27434 1.24393,-0.41134 2.22777,-0.41134 1.14465,0 1.89671,0.24101 2.25619,0.72347 0.36894,0.47299 0.57695,1.22057 0.62425,2.24224 -0.81355,0.2365 -1.57063,0.44002 -2.27066,0.6103 -0.69058,0.16081 -1.52263,0.34032 -2.49701,0.53898 -0.97437,0.19869 -1.58494,0.32622 -1.83089,0.38292 -1.17303,0.25542 -2.0951,0.75697 -2.76676,1.5043 -0.67165,0.74733 -1.00769,1.65092 -1.00769,2.71043 0,0.78517 0.20352,1.51323 0.6103,2.18488 0.40678,0.67165 0.98382,1.2062 1.73116,1.60352 0.75679,0.38785 1.63187,0.58188 2.62516,0.58188 1.08789,0 2.06698,-0.17952 2.93729,-0.53899 0.68707,-0.28813 1.3919,-0.68987 2.11357,-1.19734 0.2024,-0.14233 0.40568,-0.28953 0.61081,-0.44907 0.43516,0.70949 0.8467,1.25354 1.23455,1.63194 0.16339,0.15542 0.32794,0.27076 0.493,0.36071 0.22675,0.12358 0.45477,0.19275 0.68471,0.19275 0.47299,0 0.89403,-0.16051 1.26297,-0.48214 0.3784,-0.3311 0.56741,-0.69565 0.56741,-1.09296 0,-0.22704 -0.12301,-0.73308 -0.36897,-1.51825 -0.2365,-0.79463 -0.3545,-1.55621 -0.3545,-2.28462 0.006,-0.46741 0.006,-0.858 0.008,-1.27382 0,0 5.2e-4,0 5.2e-4,0 10e-4,-0.24713 0.005,-0.52809 0.005,-0.75706 2e-5,-0.0252 5.1e-4,-0.0582 5.1e-4,-0.0832 10e-4,-0.0833 9.8e-4,-0.21586 0.002,-0.30386 -0.11926,-0.47199 -0.25505,-0.93462 -0.41031,-1.37872 0.15529,0.44416 0.29155,0.90665 0.41083,1.37872 0.007,-0.58187 0.0124,-1.22033 0.0124,-2.00918 0,-0.13313 -0.003,-0.26138 -0.007,-0.38964 v -5.1e-4 c -0.0343,-1.25686 -0.23452,-2.28255 -0.60358,-3.07217 -0.39731,-0.87032 -1.08287,-1.50438 -2.05724,-1.90169 -0.97428,-0.40674 -2.31273,-0.60974 -4.01526,-0.60978 z m 2.88096,7.98866 v 0.55345 c 0,1.34331 -0.17502,2.3084 -0.52503,2.89492 -0.30272,0.52975 -0.78077,0.96478 -1.43351,1.30534 -0.64327,0.33109 -1.34783,0.49661 -2.11408,0.49661 -0.71895,0 -1.3005,-0.20353 -1.74511,-0.6103 -0.44462,-0.41624 -0.66714,-0.91727 -0.66714,-1.50378 0,-0.56759 0.18901,-1.00764 0.5674,-1.31982 0.3784,-0.32164 0.77594,-0.53466 1.19218,-0.63872 0.41623,-0.11351 1.16329,-0.28352 2.24172,-0.51056 1.08789,-0.2365 1.91597,-0.45902 2.48357,-0.66714 z"
         style="font-size:29.0609px;font-family:'Arial Rounded MT Bold';-inkscape-font-specification:'Arial Rounded MT Bold, ';fill:#ff6600;stroke-width:1.83326"
         id="path150" />
      <path
         style="font-size:29.0609px;font-family:'Arial Rounded MT Bold';-inkscape-font-specification:'Arial Rounded MT Bold, ';fill:#ff6600;stroke-width:1.83326"
         d="m 125.48792,117.01281 c -0.35002,0 -0.66706,0.085 -0.95085,0.25528 -0.2838,0.16082 -0.50131,0.37384 -0.65267,0.63872 -0.15134,0.25541 -0.24584,0.56295 -0.28371,0.92243 -0.0284,0.35002 -0.0429,0.83706 -0.0429,1.46141 v 2.3275 h -0.42529 c -0.58652,0 -1.03606,0.132 -1.34824,0.39688 -0.30272,0.25542 -0.45424,0.58697 -0.45424,0.99374 0,0.40678 0.14703,0.7423 0.44028,1.00717 0.29327,0.26488 0.7188,0.39739 1.27693,0.39739 h 0.51056 v 7.43572 c 0,1.20141 0.095,2.1615 0.28422,2.88045 0.19866,0.71895 0.6102,1.28149 1.23455,1.68827 0.62436,0.40677 1.54194,0.61029 2.75281,0.61029 1.27709,0 2.25617,-0.16552 2.93728,-0.49661 0.68112,-0.3311 1.02165,-0.80863 1.02165,-1.43298 0,-0.36894 -0.12802,-0.67648 -0.38344,-0.92243 -0.24595,-0.25542 -0.52498,-0.38344 -0.83716,-0.38344 -0.21758,0 -0.5201,0.0431 -0.90795,0.12816 -0.38786,0.0757 -0.6954,0.11317 -0.92243,0.11317 -0.41624,0 -0.71875,-0.099 -0.90795,-0.29765 -0.17978,-0.20812 -0.29328,-0.47316 -0.34055,-0.79479 -0.0379,-0.3311 -0.0568,-0.79965 -0.0568,-1.40508 v -7.12308 h 0.72347 c 0.76625,0 1.3528,-0.104 1.75958,-0.31212 0.41623,-0.20812 0.62425,-0.57215 0.62425,-1.09244 0,-0.40677 -0.1465,-0.73832 -0.43976,-0.99374 -0.2838,-0.26488 -0.69983,-0.39688 -1.24851,-0.39688 h -1.41903 v -2.63963 c 0,-0.65273 -0.038,-1.15428 -0.11369,-1.5043 -0.0662,-0.35947 -0.23173,-0.662 -0.49661,-0.90796 -0.39732,-0.36894 -0.84186,-0.55345 -1.33377,-0.55345 z"
         id="path108-9" />
      <path
         d="m 134.01815,114.9473 c -0.0251,-4.7e-4 -0.049,8.5e-4 -0.0718,0.004 -0.46965,0.0569 -0.46974,0.80686 -0.46974,2.52078 0,0.61845 0.006,1.08076 0.0279,1.46089 -0.017,0.16407 -0.0279,0.33567 -0.0279,0.5209 v 16.03468 c 0,0.83247 0.19401,1.46601 0.58187,1.90117 0.0688,0.0755 0.14309,0.14201 0.21963,0.20413 v -2.22364 c 0,-0.53707 0.19978,-0.96945 0.44803,-0.96945 0.24825,0 0.44804,0.43238 0.44804,0.96945 v 2.62309 c 0.13281,0.0226 0.27121,0.0351 0.41703,0.0351 0.0875,0 0.17217,-0.006 0.25528,-0.015 v -2.64325 c 0,-0.53707 0.19978,-0.96945 0.44803,-0.96945 0.24825,0 0.44804,0.43238 0.44804,0.96945 v 2.31407 c 0.12512,-0.0868 0.24304,-0.18871 0.35243,-0.30851 0.39731,-0.43516 0.59635,-1.07371 0.59635,-1.91564 v -5.88853 h 3.85919 c 2.58256,0 4.52673,-0.54406 5.8322,-1.63195 1.30547,-1.09735 1.95854,-2.70549 1.95854,-4.82451 0,-0.99329 -0.16103,-1.88737 -0.48266,-2.682 -0.22771,-0.56258 -0.53315,-1.06193 -0.9126,-1.5012 0.022,-0.38 0.0279,-0.84195 0.0279,-1.45986 0,-3.04697 1.5e-4,-3.04742 -2.6386,-1.52394 -0.77134,0.44533 -1.31103,0.75901 -1.63142,1.02009 -0.62299,-0.0638 -1.339,-0.0966 -2.15336,-0.0966 h -3.92689 c -0.3296,-0.24192 -0.83017,-0.53216 -1.50792,-0.92346 -1.0823,-0.62487 -1.72097,-0.99333 -2.09754,-1.00046 z m 0.33383,1.01183 c 0.21919,-0.0266 0.60905,0.1985 1.30172,0.59841 0.20646,0.1192 0.38276,0.22151 0.53537,0.31368 1.01774,0.61462 0.84143,0.71922 -0.53537,1.51412 -1.56896,0.90584 -1.58323,0.90884 -1.58336,-0.87024 0,-0.0162 0,-0.0269 0,-0.0434 0,-1.02835 -1.8e-4,-1.47841 0.28164,-1.51257 z m 12.7465,0 c 0.28182,0.0342 0.28164,0.48422 0.28164,1.51257 0,0.37399 -0.004,0.65331 -0.017,0.88211 -0.0527,0.88964 -0.30696,0.75862 -1.56631,0.0315 -1.1449,-0.66101 -1.45712,-0.84495 -0.9462,-1.24127 0.19562,-0.15174 0.50784,-0.33345 0.9462,-0.58653 0.69267,-0.39991 1.08253,-0.62498 1.30172,-0.59841 z m -9.40717,4.07623 h 2.83755 c 1.88253,0 3.12664,0.30754 3.73207,0.92243 0.53922,0.57706 0.80874,1.32411 0.80874,2.24172 0,0.76625 -0.17501,1.38581 -0.52503,1.8588 -0.35001,0.473 -0.86055,0.81404 -1.53221,1.02216 -0.66219,0.20811 -1.49028,0.31213 -2.48357,0.31213 h -2.83755 z"
         style="font-size:29.0609px;font-family:'Arial Rounded MT Bold';-inkscape-font-specification:'Arial Rounded MT Bold, ';fill:#ff6600;stroke-width:1.83326"
         id="path128-5" />
      <path
         style="font-size:29.0609px;font-family:'Arial Rounded MT Bold';-inkscape-font-specification:'Arial Rounded MT Bold, ';fill:#ff6600;stroke-width:1.83326"
         d="m 154.54868,116.68673 c -0.52029,0 -0.97934,0.17952 -1.37666,0.53899 -0.38785,0.35002 -0.58136,0.79957 -0.58136,1.34824 0,0.60544 0.189,1.07347 0.5674,1.40456 0.38785,0.3311 0.85141,0.49661 1.39062,0.49661 0.5203,0 0.96984,-0.16551 1.34823,-0.49661 0.3784,-0.34055 0.56741,-0.80858 0.56741,-1.40456 0,-0.61489 -0.19402,-1.08345 -0.58188,-1.40509 -0.38785,-0.32163 -0.83238,-0.48214 -1.33376,-0.48214 z"
         id="path106-3" />
      <path
         d="m 178.81334,116.5162 c -0.61489,0 -1.08794,0.22702 -1.41903,0.68109 -0.3311,0.44462 -0.49661,1.09769 -0.49661,1.95854 v 16.51682 c 0,0.77571 0.17053,1.36227 0.51108,1.75959 0.0554,0.0646 0.1156,0.12209 0.17777,0.17621 v -2.23862 c 0,-0.53707 0.19978,-0.96945 0.44803,-0.96945 0.24825,0 0.44804,0.43238 0.44804,0.96945 v 2.63343 c 0.10588,0.0149 0.21523,0.0248 0.33072,0.0248 0.11725,0 0.2308,-0.0116 0.34159,-0.0325 v -2.62568 c 0,-0.53707 0.19978,-0.96945 0.44803,-0.96945 0.24825,0 0.44804,0.43238 0.44804,0.96945 v 2.16628 c 0.0372,-0.0336 0.0745,-0.0669 0.11058,-0.10387 0.39732,-0.40678 0.59583,-0.98383 0.59583,-1.73116 v -3.0794 l 2.10013,-1.98645 3.41995,5.6193 c 0.43515,0.67165 0.78017,1.13519 1.03559,1.39061 0.19542,0.19541 0.45553,0.31485 0.77825,0.3607 l -0.85266,-1.47691 c -0.26853,-0.46511 -0.31163,-0.93937 -0.0966,-1.0635 0.21499,-0.12413 0.60428,0.15035 0.87281,0.61547 l 1.06247,1.83968 c 0.21695,-0.0755 0.40855,-0.19184 0.57516,-0.3483 l -1.05524,-1.8278 c -0.26853,-0.46511 -0.31162,-0.93937 -0.0966,-1.0635 0.21499,-0.12412 0.60428,0.15036 0.87281,0.61547 l 0.79324,1.37356 c 0.0464,-0.19217 0.0698,-0.40139 0.0698,-0.62839 0,-0.21758 -0.0665,-0.44459 -0.19895,-0.68109 -0.12298,-0.24595 -0.331,-0.601 -0.62426,-1.06454 l -3.97288,-6.24354 2.05724,-1.88723 c 1.05005,-0.94599 1.5751,-1.70254 1.5751,-2.27014 0,-0.46353 -0.16102,-0.84657 -0.48266,-1.14929 -0.32164,-0.31218 -0.72368,-0.46819 -1.20613,-0.46819 -0.40678,0 -0.7518,0.10401 -1.03559,0.31213 -0.2838,0.20812 -0.69534,0.59565 -1.23455,1.16324 l -4.35633,4.56923 v -9.39374 c 0,-0.79463 -0.17501,-1.39518 -0.52503,-1.80196 -0.35001,-0.40677 -0.82306,-0.6103 -1.41904,-0.6103 z"
         style="font-size:29.0609px;font-family:'Arial Rounded MT Bold';-inkscape-font-specification:'Arial Rounded MT Bold, ';fill:#ff6600;stroke-width:1.83326"
         id="path113-5" />
      <path
         d="m 94.227291,116.5162 c -0.135511,0 -0.269632,0.004 -0.403593,0.009 -0.825654,0.0292 -1.621659,0.14955 -2.388484,0.35864 -0.32734,0.0892 -0.649198,0.19475 -0.965833,0.31678 -0.04787,0.0184 -0.09656,0.0345 -0.144177,0.0537 -0.707137,0.28505 -1.360401,0.64869 -1.962671,1.08624 -0.437089,0.31754 -0.847987,0.67291 -1.229899,1.07073 -0.908153,0.93653 -1.608214,2.06714 -2.10013,3.39153 -0.482457,1.32439 -0.723987,2.8235 -0.723987,4.49791 0,0.65241 0.04248,1.27969 0.118339,1.88671 0.992451,-0.10635 2.194743,-0.48602 3.58221,-1.40767 -0.755669,1.83319 -2.021188,2.97748 -3.084049,3.66128 0.102596,0.31386 0.217464,0.62055 0.344681,0.92087 0.74892,-0.45604 1.550805,-1.146 2.350761,-2.19934 -0.09489,1.69125 -0.706875,3.03171 -1.368908,4.00699 0.196297,0.29005 0.402404,0.57097 0.625284,0.83612 0.06981,0.0816 0.143179,0.15497 0.214458,0.23306 0.460733,-0.80696 0.842344,-1.88269 0.99167,-3.33468 0.975416,1.82438 1.01784,3.59796 0.844393,4.86585 0.728938,0.42501 1.534647,0.74129 2.419491,0.9462 0.898693,0.20811 1.896781,0.31212 2.994132,0.31212 1.447369,0 2.714978,-0.23151 3.802869,-0.69504 1.087892,-0.46353 1.981972,-1.0646 2.682002,-1.80248 0.70004,-0.74733 1.21057,-1.50389 1.53221,-2.27014 0.3311,-0.77571 0.49661,-1.49479 0.49661,-2.15698 0,-0.5203 -0.17951,-0.95533 -0.53898,-1.30534 -0.35948,-0.35002 -0.79002,-0.52504 -1.2914,-0.52504 -0.58651,0 -1.01204,0.17502 -1.276922,0.52504 -0.264878,0.34055 -0.487404,0.78508 -0.667143,1.33376 -0.425697,1.16357 -1.059243,2.04815 -1.901176,2.65359 -0.832474,0.59597 -1.854058,0.894 -3.064929,0.894 -1.116272,0 -2.090863,-0.26503 -2.923336,-0.79478 -0.832474,-0.52976 -1.475522,-1.32933 -1.929598,-2.3983 -0.454077,-1.07843 -0.681095,-2.42604 -0.681095,-4.04369 0,-2.42174 0.510534,-4.29041 1.532206,-5.60534 1.031132,-1.31493 2.412249,-1.97249 4.143416,-1.97249 1.087891,0 2.000976,0.25552 2.738851,0.76636 0.747334,0.51083 1.395392,1.28191 1.944068,2.31304 0.331097,0.62435 0.629124,1.0644 0.894002,1.31982 0.274336,0.25542 0.680866,0.38292 1.220076,0.38292 0.48246,0 0.894,-0.18452 1.23455,-0.55346 0.34056,-0.36894 0.51108,-0.79447 0.51108,-1.27692 0,-0.87977 -0.35003,-1.81135 -1.05006,-2.79518 -0.70004,-0.99329 -1.70763,-1.82587 -3.022555,-2.49752 -1.31493,-0.67165 -2.814567,-1.00769 -4.498434,-1.00769 z"
         style="font-size:29.0609px;font-family:'Arial Rounded MT Bold';-inkscape-font-specification:'Arial Rounded MT Bold, ';fill:#ff6600;stroke-width:1.83326"
         id="path149-6" />
      <path
         d="m 88.927356,136.76974 c 0.173447,-1.26789 0.131023,-3.04147 -0.844393,-4.86585 -0.149326,1.45199 -0.530937,2.52772 -0.99167,3.33468 0.556588,0.60978 1.155202,1.11843 1.800923,1.51257 0.01137,0.007 0.02373,0.0119 0.03514,0.0186 z"
         style="fill:#d45500;stroke-width:0.0204697"
         id="path138-6" />
      <path
         d="m 86.251551,134.16939 c 0.662033,-0.97528 1.274017,-2.31574 1.368908,-4.00699 -0.799956,1.05334 -1.601841,1.7433 -2.350761,2.19934 0.06528,0.15411 0.130802,0.30835 0.202572,0.45889 0.230304,0.47746 0.492343,0.92477 0.779281,1.34876 z"
         style="fill:#d45500;stroke-width:0.0204697"
         id="path137-7" />
      <path
         d="m 84.925017,131.44087 c 1.062861,-0.6838 2.32838,-1.82809 3.084049,-3.66128 -1.387467,0.92165 -2.589759,1.30132 -3.58221,1.40767 0.04404,0.35239 0.09639,0.6996 0.165881,1.03663 0.09026,0.41691 0.203021,0.82155 0.33228,1.21698 z"
         style="fill:#d45500;stroke-width:0.0204697"
         id="path136-5" />
      <path
         d="m 136.74253,137.6839 v -2.31407 c 0,-0.53707 -0.19979,-0.96945 -0.44804,-0.96945 -0.24825,0 -0.44803,0.43238 -0.44803,0.96945 v 2.64325 c 0.33379,-0.0365 0.63236,-0.14622 0.89607,-0.32918 z"
         style="fill:#d45500;stroke-width:0.294596"
         id="path126-9" />
      <path
         d="m 180.051,137.53611 v -2.16628 c 0,-0.53707 -0.19979,-0.96945 -0.44804,-0.96945 -0.24825,0 -0.44803,0.43238 -0.44803,0.96945 v 2.62568 c 0.32694,-0.0617 0.62557,-0.21537 0.89607,-0.4594 z"
         style="fill:#d45500;stroke-width:0.294596"
         id="path114-3" />
      <path
         d="m 190.16666,136.67001 -0.79324,-1.37356 c -0.26853,-0.46511 -0.65782,-0.73959 -0.87281,-0.61547 -0.21499,0.12413 -0.1719,0.59839 0.0966,1.0635 l 1.05524,1.8278 c 0.0244,-0.0229 0.0495,-0.0446 0.0729,-0.0692 0.21483,-0.22677 0.36194,-0.50466 0.44132,-0.83302 z"
         style="fill:#d45500;stroke-width:0.294596"
         id="path117-5" />
      <path
         d="m 135.17415,137.99292 v -2.62309 c 0,-0.53707 -0.19979,-0.96945 -0.44804,-0.96945 -0.24825,0 -0.44803,0.43238 -0.44803,0.96945 v 2.22364 c 0.25573,0.20755 0.55396,0.34138 0.89607,0.39945 z"
         style="fill:#d45500;stroke-width:0.294596"
         id="path127-2" />
      <path
         d="m 178.48262,138.00326 v -2.63343 c 0,-0.53707 -0.19979,-0.96945 -0.44804,-0.96945 -0.24825,0 -0.44803,0.43238 -0.44803,0.96945 v 2.23862 c 0.24585,0.21404 0.54446,0.34529 0.89607,0.39481 z"
         style="fill:#d45500;stroke-width:0.294596"
         id="path115-6" />
      <path
         d="m 189.07732,137.92058 -1.06247,-1.83968 c -0.26853,-0.46512 -0.65782,-0.7396 -0.87281,-0.61547 -0.215,0.12413 -0.1719,0.59839 0.0966,1.0635 l 0.85266,1.47691 c 0.0991,0.0141 0.20308,0.0222 0.31419,0.0222 0.24617,0 0.46939,-0.037 0.6718,-0.10748 z"
         style="fill:#d45500;stroke-width:0.294596"
         id="path116-9" />
      <path
         d="m 156.12274,137.14646 c -0.81285,-0.34383 -1.70013,-0.65825 -2.67632,-0.9312 0.84197,0.35078 1.56492,0.85775 2.18798,1.46296 0.0975,-0.0713 0.1899,-0.15276 0.27647,-0.24598 0.0798,-0.0859 0.14935,-0.1822 0.21187,-0.28578 z"
         style="fill:#d45500;stroke-width:0.0298809"
         id="path121-7" />
      <path
         d="m 156.46432,134.49598 c -0.88304,0.10843 -1.81707,0.28081 -2.8081,0.53485 0.97003,-0.12568 1.91089,-0.0267 2.8081,0.22221 z"
         style="fill:#d45500;stroke-width:0.0298809"
         id="path120-8" />
      <path
         d="m 156.46432,131.48996 c -0.77211,0.56724 -1.55924,1.22962 -2.35644,2.0097 0.72353,-0.55284 1.52235,-0.92465 2.35644,-1.16169 z"
         style="fill:#d45500;stroke-width:0.0298809"
         id="path119-9" />
      <path
         d="m 134.37626,115.95758 c -0.30596,0.0115 -0.30592,0.4572 -0.30592,1.51412 0,0.0165 0,0.0272 0,0.0434 1.3e-4,1.77908 0.0144,1.77608 1.58336,0.87024 1.3768,-0.7949 1.55311,-0.8995 0.53537,-1.51412 -0.15261,-0.0922 -0.32891,-0.19448 -0.53537,-0.31368 -0.66793,-0.38563 -1.05417,-0.60836 -1.27744,-0.59996 z"
         style="fill:#ffaaaa;stroke-width:0.20029"
         id="path130-5" />
      <path
         d="m 147.04888,115.95758 c -0.22678,0.008 -0.60893,0.22861 -1.25212,0.59996 -0.43836,0.25308 -0.75058,0.43479 -0.9462,0.58653 -0.51092,0.39632 -0.1987,0.58026 0.9462,1.24127 1.25935,0.72709 1.5136,0.85811 1.56631,-0.0315 0.0135,-0.2288 0.017,-0.50812 0.017,-0.88211 0,-1.08549 1.9e-4,-1.52629 -0.33124,-1.51412 z"
         style="fill:#ffaaaa;stroke-width:0.20029"
         id="path129-7" />
      <g
         id="g13">
        <path
           style="font-size:29.0609px;font-family:'Arial Rounded MT Bold';-inkscape-font-specification:'Arial Rounded MT Bold, ';fill:#ff6600;stroke-width:1.83326"
           d="m 193.37742,182.8695 c -1.27709,0 -2.36969,0.20802 -3.27784,0.62426 -0.89869,0.40677 -1.57976,0.95531 -2.04329,1.64589 -0.46353,0.69057 -0.69556,1.42364 -0.69556,2.19935 0,0.87031 0.25104,1.60338 0.75241,2.19935 0.50137,0.59598 1.16792,1.07853 2.00039,1.44746 0.84193,0.35948 1.93004,0.70502 3.26389,1.03611 1.18249,0.2838 2.02906,0.58182 2.53989,0.894 0.52029,0.31217 0.78032,0.80871 0.78032,1.48983 0,0.44461 -0.25053,0.84164 -0.7519,1.19166 -0.49191,0.34055 -1.12545,0.51108 -1.90117,0.51108 -0.95545,0 -1.71252,-0.17053 -2.27066,-0.51108 -0.54867,-0.34056 -1.02172,-0.85611 -1.41904,-1.54668 -0.19866,-0.35948 -0.40668,-0.6385 -0.62425,-0.83715 -0.21758,-0.19869 -0.5296,-0.29766 -0.93638,-0.29766 -0.46353,0 -0.84656,0.15101 -1.14928,0.45372 -0.30271,0.30272 -0.45424,0.66726 -0.45424,1.09296 0,0.64327 0.23653,1.28632 0.70952,1.92959 0.473,0.63381 1.20606,1.16335 2.19935,1.58905 0.99329,0.42569 2.1854,0.63872 3.57601,0.63872 1.45683,0 2.69092,-0.19402 3.70313,-0.58187 1.02167,-0.39732 1.79275,-0.97437 2.31304,-1.73116 0.5203,-0.76625 0.78083,-1.68384 0.78083,-2.75281 0,-0.70949 -0.19903,-1.33855 -0.59635,-1.88722 -0.38786,-0.55814 -0.96491,-1.04069 -1.73116,-1.44746 -0.75679,-0.40678 -1.73587,-0.75681 -2.93728,-1.05006 -1.01221,-0.24596 -1.80678,-0.45397 -2.38384,-0.62425 -0.57705,-0.17028 -1.03558,-0.3828 -1.37614,-0.63821 -0.34055,-0.26488 -0.51108,-0.60091 -0.51108,-1.00769 0,-0.44461 0.23203,-0.81365 0.69556,-1.10691 0.46354,-0.30271 1.04509,-0.45423 1.74512,-0.45423 0.68111,0 1.22015,0.11352 1.61747,0.34055 0.39731,0.22704 0.74285,0.53007 1.03611,0.90847 0.35948,0.45407 0.67652,0.7946 0.95085,1.02164 0.2838,0.22704 0.62433,0.34055 1.02164,0.34055 0.54868,0 0.96972,-0.14202 1.26297,-0.42582 0.30272,-0.2838 0.45372,-0.64783 0.45372,-1.09244 0,-0.40678 -0.14201,-0.82332 -0.42581,-1.24901 -0.27433,-0.4257 -0.68086,-0.81323 -1.22008,-1.16324 -0.52975,-0.35002 -1.19682,-0.62904 -2.00091,-0.83716 -0.79463,-0.20812 -1.69321,-0.31213 -2.69596,-0.31213 z"
           id="path112-2-0" />
        <path
           d="m 149.94227,182.86946 c -0.56759,0 -1.03114,0.1935 -1.39061,0.58136 -0.35002,0.38786 -0.52504,0.96491 -0.52504,1.73116 v 11.08253 c 0,0.75679 0.17502,1.33833 0.52504,1.74511 0.35947,0.40677 0.82302,0.6103 1.39061,0.6103 0.43442,0 0.81012,-0.11716 1.1281,-0.34985 0.0975,-0.0713 0.18989,-0.15276 0.27646,-0.24598 0.0798,-0.0859 0.14936,-0.18219 0.21188,-0.28577 0.22668,-0.37555 0.34158,-0.86579 0.34158,-1.47381 v -0.41962 -0.75706 -2.158 -0.84801 -7.01301 c 0,-0.69057 -0.18452,-1.23013 -0.55346,-1.61799 -0.36893,-0.38786 -0.83696,-0.58136 -1.40456,-0.58136 z"
           style="font-size:29.0609px;font-family:'Arial Rounded MT Bold';-inkscape-font-specification:'Arial Rounded MT Bold, ';fill:#ff6600;stroke-width:1.83326"
           id="path12" />
        <path
           d="m 162.91167,182.84098 c -1.61765,0 -3.00827,0.33551 -4.17184,1.00717 -1.16357,0.66219 -2.05265,1.60379 -2.66754,2.82412 -0.39606,0.78603 -0.66271,1.64963 -0.80305,2.58899 -0.0447,0.29905 -0.0771,0.60538 -0.0961,0.91984 -0.014,0.23132 -0.0233,0.46566 -0.0233,0.70538 0,0.16863 0.004,0.33399 0.0114,0.49765 0.0153,0.35551 0.0504,0.6972 0.0982,1.02991 0.009,0.0655 0.0158,0.13331 0.0264,0.19792 0.0444,0.26814 0.10075,0.5275 0.16691,0.78031 0.15779,0.60294 0.37653,1.1633 0.65888,1.67845 0.28696,0.52353 0.63769,1.00203 1.05316,1.43506 1.34331,1.39061 3.21197,2.08566 5.60534,2.08566 0.20971,0 0.41158,-0.0107 0.6134,-0.0212 0.88158,-0.0458 1.69183,-0.18621 2.42311,-0.43253 0.89869,-0.30272 1.64125,-0.70027 2.22777,-1.19218 0.59597,-0.50138 1.03602,-1.02642 1.31982,-1.57509 0.29325,-0.54867 0.43976,-1.06422 0.43976,-1.54668 0,-0.40677 -0.15601,-0.7898 -0.46818,-1.14928 -0.31218,-0.35948 -0.70472,-0.53951 -1.17771,-0.53951 -0.39732,0 -0.73335,0.12301 -1.00769,0.36897 -0.27433,0.24596 -0.52986,0.5865 -0.76636,1.02165 -0.4257,0.73787 -0.91723,1.28693 -1.47536,1.64641 -0.54867,0.35948 -1.21125,0.53898 -1.98696,0.53898 -0.57706,0 -1.1066,-0.10901 -1.58905,-0.32659 -0.48246,-0.22704 -0.894,-0.55306 -1.23455,-0.97875 -0.21924,-0.28013 -0.40141,-0.59956 -0.55397,-0.95033 -0.0844,-0.19411 -0.16232,-0.39514 -0.22635,-0.61082 -0.17971,-0.61489 -0.26975,-1.28644 -0.26975,-2.01486 0,-0.62201 0.059,-1.18825 0.17157,-1.70377 0.16814,-0.7703 0.45912,-1.42427 0.8785,-1.95699 0.70003,-0.89869 1.6221,-1.34824 2.76675,-1.34824 0.79463,0 1.44771,0.17951 1.95854,0.53899 0.52029,0.35947 1.01683,0.89903 1.48983,1.61799 0.26488,0.36893 0.50141,0.63845 0.70952,0.80873 0.21758,0.16083 0.48709,0.24133 0.80873,0.24133 0.49191,0 0.90846,-0.16102 1.24902,-0.48266 0.35001,-0.32164 0.52504,-0.71417 0.52504,-1.1777 0,-0.45408 -0.15654,-0.94112 -0.46871,-1.46141 -0.30272,-0.52975 -0.74726,-1.02629 -1.33377,-1.48983 -0.57706,-0.46353 -1.28662,-0.84208 -2.12855,-1.13534 -0.83247,-0.29326 -1.75005,-0.43976 -2.7528,-0.43976 z"
           style="font-size:29.0609px;font-family:'Arial Rounded MT Bold';-inkscape-font-specification:'Arial Rounded MT Bold, ';fill:#ff6600;stroke-width:1.83326"
           id="path151-2" />
        <path
           d="m 108.46486,182.84098 c -1.52282,5e-5 -2.79527,0.20806 -3.81682,0.62425 -1.02167,0.41623 -1.77374,0.94577 -2.25619,1.58905 -0.48246,0.64327 -0.72347,1.30533 -0.72347,1.98644 0,0.43516 0.15601,0.7947 0.46818,1.07849 0.32164,0.27434 0.70018,0.41186 1.13533,0.41186 0.48246,0 0.79448,-0.0855 0.93638,-0.2558 0.15136,-0.17974 0.40188,-0.54377 0.75189,-1.09244 0.35948,-0.54867 0.78553,-0.96021 1.27745,-1.23455 0.50137,-0.27434 1.24393,-0.41134 2.22777,-0.41134 1.14465,0 1.89671,0.24101 2.25619,0.72347 0.36894,0.47299 0.57695,1.22057 0.62425,2.24224 -0.81355,0.2365 -1.57063,0.44002 -2.27066,0.6103 -0.69058,0.16081 -1.52263,0.34032 -2.49701,0.53898 -0.97437,0.19869 -1.58494,0.32622 -1.83089,0.38292 -1.17303,0.25542 -2.0951,0.75697 -2.76676,1.5043 -0.67165,0.74733 -1.00769,1.65092 -1.00769,2.71043 0,0.78517 0.20352,1.51323 0.6103,2.18488 0.40678,0.67165 0.98382,1.2062 1.73116,1.60352 0.75679,0.38785 1.63187,0.58188 2.62516,0.58188 1.08789,0 2.06698,-0.17952 2.93729,-0.53899 0.68707,-0.28813 1.3919,-0.68987 2.11357,-1.19734 0.2024,-0.14233 0.40568,-0.28953 0.61081,-0.44907 0.43516,0.70949 0.8467,1.25354 1.23455,1.63194 0.16339,0.15542 0.32794,0.27076 0.493,0.36071 0.22675,0.12358 0.45477,0.19275 0.68471,0.19275 0.47299,0 0.89403,-0.16051 1.26297,-0.48214 0.3784,-0.3311 0.56741,-0.69565 0.56741,-1.09296 0,-0.22704 -0.12301,-0.73308 -0.36897,-1.51825 -0.2365,-0.79463 -0.3545,-1.55621 -0.3545,-2.28462 0.006,-0.46741 0.006,-0.858 0.008,-1.27382 0,0 5.2e-4,0 5.2e-4,0 0.001,-0.24713 0.005,-0.52809 0.005,-0.75706 2e-5,-0.0252 5.1e-4,-0.0582 5.1e-4,-0.0832 0.001,-0.0833 9.8e-4,-0.21586 0.002,-0.30386 -0.11926,-0.47199 -0.25505,-0.93462 -0.41031,-1.37872 0.15529,0.44416 0.29155,0.90665 0.41083,1.37872 0.007,-0.58187 0.0124,-1.22033 0.0124,-2.00918 0,-0.13313 -0.003,-0.26138 -0.007,-0.38964 v -5.1e-4 c -0.0343,-1.25686 -0.23452,-2.28255 -0.60358,-3.07217 -0.39731,-0.87032 -1.08287,-1.50438 -2.05724,-1.90169 -0.97428,-0.40674 -2.31273,-0.60974 -4.01526,-0.60978 z m 2.88096,7.98866 v 0.55345 c 0,1.34331 -0.17502,2.3084 -0.52503,2.89492 -0.30272,0.52975 -0.78077,0.96478 -1.43351,1.30534 -0.64327,0.33109 -1.34783,0.49661 -2.11408,0.49661 -0.71895,0 -1.3005,-0.20353 -1.74511,-0.6103 -0.44462,-0.41624 -0.66714,-0.91727 -0.66714,-1.50378 0,-0.56759 0.18901,-1.00764 0.5674,-1.31982 0.3784,-0.32164 0.77594,-0.53466 1.19218,-0.63872 0.41623,-0.11351 1.16329,-0.28352 2.24172,-0.51056 1.08789,-0.2365 1.91597,-0.45902 2.48357,-0.66714 z"
           style="font-size:29.0609px;font-family:'Arial Rounded MT Bold';-inkscape-font-specification:'Arial Rounded MT Bold, ';fill:#ff6600;stroke-width:1.83326"
           id="path150-6" />
        <path
           style="font-size:29.0609px;font-family:'Arial Rounded MT Bold';-inkscape-font-specification:'Arial Rounded MT Bold, ';fill:#ff6600;stroke-width:1.83326"
           d="m 120.92396,177.60471 c -0.35002,0 -0.66706,0.085 -0.95085,0.25528 -0.2838,0.16082 -0.50131,0.37384 -0.65267,0.63872 -0.15134,0.25541 -0.24584,0.56295 -0.28371,0.92243 -0.0284,0.35002 -0.0429,0.83706 -0.0429,1.46141 v 2.3275 h -0.42529 c -0.58652,0 -1.03606,0.132 -1.34824,0.39688 -0.30272,0.25542 -0.45424,0.58697 -0.45424,0.99374 0,0.40678 0.14703,0.7423 0.44028,1.00717 0.29327,0.26488 0.7188,0.39739 1.27693,0.39739 h 0.51056 v 7.43572 c 0,1.20141 0.095,2.1615 0.28422,2.88045 0.19866,0.71895 0.6102,1.28149 1.23455,1.68827 0.62436,0.40677 1.54194,0.61029 2.75281,0.61029 1.27709,0 2.25617,-0.16552 2.93728,-0.49661 0.68112,-0.3311 1.02165,-0.80863 1.02165,-1.43298 0,-0.36894 -0.12802,-0.67648 -0.38344,-0.92243 -0.24595,-0.25542 -0.52498,-0.38344 -0.83716,-0.38344 -0.21758,0 -0.5201,0.0431 -0.90795,0.12816 -0.38786,0.0757 -0.6954,0.11317 -0.92243,0.11317 -0.41624,0 -0.71875,-0.099 -0.90795,-0.29765 -0.17978,-0.20812 -0.29328,-0.47316 -0.34055,-0.79479 -0.0379,-0.3311 -0.0568,-0.79965 -0.0568,-1.40508 v -7.12308 h 0.72347 c 0.76625,0 1.3528,-0.104 1.75958,-0.31212 0.41623,-0.20812 0.62425,-0.57215 0.62425,-1.09244 0,-0.40677 -0.1465,-0.73832 -0.43976,-0.99374 -0.2838,-0.26488 -0.69983,-0.39688 -1.24851,-0.39688 h -1.41903 v -2.63963 c 0,-0.65273 -0.038,-1.15428 -0.11369,-1.5043 -0.0662,-0.35947 -0.23173,-0.662 -0.49661,-0.90796 -0.39732,-0.36894 -0.84186,-0.55345 -1.33377,-0.55345 z"
           id="path108-9-9" />
        <path
           d="m 129.45411,175.53916 c -0.0251,-4.7e-4 -0.049,9.8e-4 -0.0718,0.004 -0.46965,0.0569 -0.46974,0.80686 -0.46974,2.52078 0,0.61845 0.006,1.08076 0.0279,1.46089 -0.017,0.16407 -0.0279,0.33567 -0.0279,0.5209 v 16.03468 c 0,0.83247 0.19402,1.46601 0.58188,1.90117 0.0688,0.0755 0.14309,0.14201 0.21963,0.20413 v -5.2e-4 c 0.25573,0.20755 0.55396,0.34139 0.89607,0.39946 v 5.1e-4 c 0.13281,0.0226 0.2712,0.0351 0.41702,0.0351 0.0875,0 0.17218,-0.006 0.25529,-0.015 v -5.2e-4 c 0.33379,-0.0365 0.63236,-0.14622 0.89607,-0.32918 v 5.2e-4 c 0.12512,-0.0868 0.24304,-0.18871 0.35243,-0.30851 0.39731,-0.43516 0.59634,-1.07371 0.59634,-1.91564 v -5.88853 h 3.8592 c 2.58256,0 4.52673,-0.54406 5.8322,-1.63195 1.30547,-1.09735 1.95854,-2.70549 1.95854,-4.82451 0,-0.99329 -0.16103,-1.88737 -0.48266,-2.682 -0.22771,-0.56258 -0.53315,-1.06193 -0.9126,-1.5012 0.022,-0.38 0.0279,-0.84195 0.0279,-1.45986 0,-3.04697 1.5e-4,-3.04742 -2.6386,-1.52394 -0.77134,0.44533 -1.31103,0.75901 -1.63142,1.02009 -0.62299,-0.0638 -1.339,-0.0966 -2.15336,-0.0966 h -3.92689 c -0.3296,-0.24192 -0.83017,-0.53216 -1.50792,-0.92346 -1.0823,-0.62487 -1.72098,-0.99333 -2.09755,-1.00046 z m 0.33383,1.01182 c 0.21919,-0.0266 0.60906,0.1985 1.30173,0.59841 0.20646,0.1192 0.38276,0.22151 0.53537,0.31368 1.01774,0.61462 0.84143,0.71922 -0.53537,1.51412 -1.56896,0.90584 -1.58323,0.90885 -1.58336,-0.87023 v -0.0434 c 0,-1.02835 -1.9e-4,-1.47841 0.28163,-1.51257 z m 12.74651,0 c 0.28182,0.0342 0.28164,0.48422 0.28164,1.51257 0,0.37399 -0.004,0.65332 -0.0171,0.88212 -0.0527,0.88964 -0.30697,0.75864 -1.56632,0.0315 -1.1449,-0.66101 -1.45711,-0.84495 -0.94619,-1.24127 0.19562,-0.15174 0.50783,-0.33345 0.94619,-0.58653 0.69267,-0.39991 1.08254,-0.62498 1.30173,-0.59841 z m -9.40718,4.07624 h 2.83756 c 1.88253,0 3.12664,0.30753 3.73207,0.92242 0.53922,0.57706 0.80874,1.32412 0.80874,2.24173 0,0.76625 -0.17502,1.38581 -0.52504,1.8588 -0.35001,0.473 -0.86054,0.81404 -1.5322,1.02216 -0.66219,0.20811 -1.49028,0.31212 -2.48357,0.31212 h -2.83756 z"
           style="font-size:29.0609px;font-family:'Arial Rounded MT Bold';-inkscape-font-specification:'Arial Rounded MT Bold, ';fill:#ff6600;stroke-width:1.83326"
           id="path11" />
        <path
           style="font-size:29.0609px;font-family:'Arial Rounded MT Bold';-inkscape-font-specification:'Arial Rounded MT Bold, ';fill:#ff6600;stroke-width:1.83326"
           d="m 149.98472,177.27863 c -0.52029,0 -0.97934,0.17952 -1.37666,0.53899 -0.38785,0.35002 -0.58136,0.79957 -0.58136,1.34824 0,0.60544 0.189,1.07347 0.5674,1.40456 0.38785,0.3311 0.85141,0.49661 1.39062,0.49661 0.5203,0 0.96984,-0.16551 1.34823,-0.49661 0.3784,-0.34055 0.56741,-0.80858 0.56741,-1.40456 0,-0.61489 -0.19402,-1.08345 -0.58188,-1.40509 -0.38785,-0.32163 -0.83238,-0.48214 -1.33376,-0.48214 z"
           id="path106-3-1" />
        <path
           d="m 174.24931,177.10805 c -0.61489,0 -1.08794,0.22703 -1.41903,0.6811 -0.3311,0.44462 -0.49661,1.09768 -0.49661,1.95853 v 16.51683 c 0,0.77571 0.17053,1.36226 0.51108,1.75958 0.0554,0.0646 0.11559,0.1221 0.17776,0.17622 0.24585,0.21404 0.54446,0.34528 0.89607,0.3948 0.10588,0.0149 0.21524,0.0248 0.33073,0.0248 0.11725,0 0.23079,-0.0117 0.34158,-0.0326 0.32694,-0.0617 0.62557,-0.21537 0.89607,-0.4594 0.0372,-0.0336 0.0745,-0.0669 0.11059,-0.10387 0.39732,-0.40678 0.59583,-0.98383 0.59583,-1.73116 v -3.0794 l 2.10013,-1.98644 3.41995,5.61929 c 0.43515,0.67165 0.78017,1.1352 1.03559,1.39062 0.19542,0.19541 0.45553,0.31485 0.77825,0.3607 0.0991,0.0141 0.20308,0.0222 0.31419,0.0222 0.24617,0 0.46939,-0.037 0.6718,-0.10749 0.21695,-0.0755 0.40854,-0.19184 0.57515,-0.3483 0.0244,-0.0229 0.0495,-0.0446 0.0729,-0.0692 0.21483,-0.22677 0.36193,-0.50467 0.44131,-0.83303 0.0464,-0.19217 0.0698,-0.40138 0.0698,-0.62838 0,-0.21758 -0.0665,-0.4446 -0.19896,-0.6811 -0.12298,-0.24595 -0.33099,-0.60099 -0.62425,-1.06453 l -3.97288,-6.24355 2.05724,-1.88722 c 1.05005,-0.94599 1.57509,-1.70255 1.57509,-2.27015 0,-0.46353 -0.16101,-0.84656 -0.48265,-1.14928 -0.32164,-0.31218 -0.72368,-0.46819 -1.20613,-0.46819 -0.40678,0 -0.75181,0.104 -1.0356,0.31212 -0.2838,0.20812 -0.69534,0.59565 -1.23455,1.16324 l -4.35632,4.56923 v -9.39374 c 0,-0.79463 -0.17501,-1.39518 -0.52503,-1.80196 -0.35001,-0.40677 -0.82306,-0.6103 -1.41904,-0.6103 z"
           style="font-size:29.0609px;font-family:'Arial Rounded MT Bold';-inkscape-font-specification:'Arial Rounded MT Bold, ';fill:#ff6600;stroke-width:1.83326"
           id="path13" />
        <path
           d="m 89.663261,177.10805 c -0.13551,0 -0.269633,0.004 -0.403593,0.009 -0.82565,0.0292 -1.621665,0.14955 -2.388485,0.35864 -0.32734,0.0892 -0.649192,0.19475 -0.965832,0.31678 -0.0479,0.0184 -0.09661,0.034 -0.144177,0.0532 -0.70714,0.28505 -1.360401,0.64869 -1.962671,1.08624 -0.43709,0.31754 -0.847989,0.67292 -1.229899,1.07074 -0.90816,0.93653 -1.608221,2.06713 -2.100131,3.39152 -0.48246,1.32439 -0.723987,2.82351 -0.723987,4.49792 0,0.65241 0.0425,1.27968 0.11834,1.8867 0.044,0.35239 0.0964,0.6996 0.165881,1.03663 0.0903,0.41691 0.203019,0.82155 0.332279,1.21698 0.1026,0.31386 0.217472,0.62056 0.344682,0.92088 0.0653,0.15411 0.130802,0.30834 0.202572,0.45888 0.23031,0.47746 0.49234,0.92477 0.77928,1.34876 0.19629,0.29005 0.402405,0.57097 0.625285,0.83612 0.0698,0.0816 0.143177,0.15497 0.214457,0.23306 0.55659,0.60978 1.155204,1.11843 1.800924,1.51257 0.0114,0.007 0.02374,0.0119 0.03514,0.0186 0.72894,0.42501 1.534651,0.74128 2.419491,0.94619 0.89869,0.20811 1.896782,0.31213 2.994132,0.31213 1.44737,0 2.714979,-0.23152 3.802869,-0.69505 1.08789,-0.46353 1.981977,-1.06459 2.682007,-1.80247 0.70004,-0.74733 1.210566,-1.5039 1.532206,-2.27015 0.3311,-0.77571 0.49661,-1.49478 0.49661,-2.15697 0,-0.5203 -0.179515,-0.95534 -0.538985,-1.30535 -0.35948,-0.35002 -0.790014,-0.52503 -1.291394,-0.52503 -0.58651,0 -1.012045,0.17501 -1.276925,0.52503 -0.26488,0.34055 -0.487402,0.78509 -0.667142,1.33377 -0.4257,1.16357 -1.059236,2.04814 -1.901176,2.65358 -0.83247,0.59597 -1.854059,0.894 -3.064929,0.894 -1.11627,0 -2.090866,-0.26503 -2.923336,-0.79478 -0.83248,-0.52976 -1.475518,-1.32933 -1.929598,-2.3983 -0.45408,-1.07843 -0.681096,-2.42603 -0.681096,-4.04368 0,-2.42174 0.510537,-4.29042 1.532207,-5.60535 1.03113,-1.31493 2.412246,-1.97248 4.143416,-1.97248 1.08789,0 2.000971,0.25552 2.738851,0.76636 0.74733,0.51083 1.395387,1.2819 1.944067,2.31303 0.33109,0.62435 0.629123,1.0644 0.894003,1.31982 0.27433,0.25542 0.68087,0.38292 1.22008,0.38292 0.48246,0 0.894,-0.18451 1.23455,-0.55345 0.34056,-0.36894 0.51108,-0.79448 0.51108,-1.27693 0,-0.87977 -0.350035,-1.81135 -1.050065,-2.79518 -0.70004,-0.99329 -1.707635,-1.82587 -3.022555,-2.49752 -1.31493,-0.67165 -2.814563,-1.00769 -4.498433,-1.00769 z"
           style="font-size:29.0609px;font-family:'Arial Rounded MT Bold';-inkscape-font-specification:'Arial Rounded MT Bold, ';fill:#ff6600;stroke-width:1.83326"
           id="path10" />
        <path
           d="m 129.8123,176.54948 c -0.30596,0.0115 -0.30592,0.4572 -0.30592,1.51412 0,0.0165 0,0.0272 0,0.0434 1.3e-4,1.77908 0.0144,1.77608 1.58336,0.87024 1.3768,-0.7949 1.55311,-0.8995 0.53537,-1.51412 -0.15261,-0.0922 -0.32891,-0.19448 -0.53537,-0.31368 -0.66793,-0.38563 -1.05417,-0.60836 -1.27744,-0.59996 z"
           style="fill:#ffaaaa;stroke-width:0.20029"
           id="path130-5-9" />
        <path
           d="m 142.48492,176.54948 c -0.22678,0.008 -0.60893,0.22861 -1.25212,0.59996 -0.43836,0.25308 -0.75058,0.43479 -0.9462,0.58653 -0.51092,0.39632 -0.1987,0.58026 0.9462,1.24127 1.25935,0.72709 1.5136,0.85811 1.56631,-0.0315 0.0135,-0.2288 0.017,-0.50812 0.017,-0.88211 0,-1.08549 1.9e-4,-1.52629 -0.33124,-1.51412 z"
           style="fill:#ffaaaa;stroke-width:0.20029"
           id="path129-7-5" />
      </g>
    </g>
  </g>
</svg>
